<svg width="65" height="57" viewBox="0 0 65 57" fill="none" xmlns="http://www.w3.org/2000/svg">
<ellipse cx="1.39737" cy="55.7346" rx="1.24136" ry="1.39737" transform="rotate(-90 1.39737 55.7346)" fill="#3758F9"/>
<ellipse cx="1.39737" cy="23.2105" rx="1.24136" ry="1.39737" transform="rotate(-90 1.39737 23.2105)" fill="#3758F9"/>
<ellipse cx="13.6943" cy="55.7345" rx="1.24136" ry="1.39737" transform="rotate(-90 13.6943 55.7345)" fill="#3758F9"/>
<ellipse cx="13.6943" cy="23.2105" rx="1.24136" ry="1.39737" transform="rotate(-90 13.6943 23.2105)" fill="#3758F9"/>
<ellipse cx="25.9911" cy="55.7346" rx="1.24136" ry="1.39737" transform="rotate(-90 25.9911 55.7346)" fill="#3758F9"/>
<ellipse cx="25.9911" cy="23.2105" rx="1.24136" ry="1.39737" transform="rotate(-90 25.9911 23.2105)" fill="#3758F9"/>
<ellipse cx="38.288" cy="55.7345" rx="1.24136" ry="1.39737" transform="rotate(-90 38.288 55.7345)" fill="#3758F9"/>
<ellipse cx="38.288" cy="23.2105" rx="1.24136" ry="1.39737" transform="rotate(-90 38.288 23.2105)" fill="#3758F9"/>
<ellipse cx="1.39737" cy="44.8104" rx="1.24136" ry="1.39737" transform="rotate(-90 1.39737 44.8104)" fill="#3758F9"/>
<ellipse cx="13.6943" cy="44.8104" rx="1.24136" ry="1.39737" transform="rotate(-90 13.6943 44.8104)" fill="#3758F9"/>
<ellipse cx="25.9911" cy="44.8104" rx="1.24136" ry="1.39737" transform="rotate(-90 25.9911 44.8104)" fill="#3758F9"/>
<ellipse cx="38.288" cy="44.8104" rx="1.24136" ry="1.39737" transform="rotate(-90 38.288 44.8104)" fill="#3758F9"/>
<ellipse cx="1.39737" cy="33.8863" rx="1.24136" ry="1.39737" transform="rotate(-90 1.39737 33.8863)" fill="#3758F9"/>
<ellipse cx="13.6943" cy="33.8863" rx="1.24136" ry="1.39737" transform="rotate(-90 13.6943 33.8863)" fill="#3758F9"/>
<ellipse cx="25.9911" cy="33.8863" rx="1.24136" ry="1.39737" transform="rotate(-90 25.9911 33.8863)" fill="#3758F9"/>
<ellipse cx="38.288" cy="33.8863" rx="1.24136" ry="1.39737" transform="rotate(-90 38.288 33.8863)" fill="#3758F9"/>
</svg>
