<svg width="36" height="36" viewBox="0 0 36 36" fill="none" xmlns="http://www.w3.org/2000/svg">
<rect width="36" height="36" rx="18" fill="#98D2E1" fill-opacity="0.1"/>
<path d="M23.3333 14.4447C23.3333 13.0302 22.7714 11.6736 21.7712 10.6734C20.771 9.67323 19.4145 9.11133 18 9.11133C16.5855 9.11133 15.229 9.67323 14.2288 10.6734C13.2286 11.6736 12.6667 13.0302 12.6667 14.4447C12.6667 20.6669 10 22.4447 10 22.4447H26C26 22.4447 23.3333 20.6669 23.3333 14.4447Z" stroke="#4B5054" stroke-width="2" stroke-linecap="round" stroke-linejoin="round"/>
<path d="M19.5378 26C19.3816 26.2694 19.1573 26.493 18.8874 26.6485C18.6175 26.8039 18.3115 26.8857 18.0001 26.8857C17.6886 26.8857 17.3826 26.8039 17.1127 26.6485C16.8429 26.493 16.6186 26.2694 16.4623 26" stroke="#4B5054" stroke-width="2" stroke-linecap="round" stroke-linejoin="round"/>
</svg>
